#!OML:ASF Y:\EmotionMaleHayes\Project 1\Capture day 1\Session 1\Male1.ASF
:FULLY-SPECIFIED
:DEGREES
2657
root -29.7235 16.5145 -9.94923 1082.69 -16.6068 -367.806
lowerback 3.00427 4.49216 6.49954
upperback -0.488549 6.25695 1.60255
thorax -1.67241 3.06063 -2.21008
lowerneck -17.5839 11.7749 15.8547
upperneck 22.2044 13.4136 -5.48718
head 11.6475 6.80074 -2.3701
rclavicle -5.81352e-014 8.74653e-015
rhumerus -26.0141 -0.397514 -75.3275
rradius 41.7444
rwrist 0.619225
rhand -8.86636 -30.415
rfingers 7.12502
rthumb 17.0751 -59.6846
lclavicle -5.81352e-014 8.74653e-015
lhumerus -46.645 -0.120933 84.1404
lradius 22.9752
lwrist -15.0427
lhand -4.07252 -23.1627
lfingers 7.12502
lthumb 21.6843 5.64293
rfemur 24.084 -2.87454 22.328
rtibia 6.01595
rfoot -18.1136 -2.85437
rtoes -16.9641
lfemur -13.095 18.1196 -10.8814
ltibia 1.64982
lfoot -16.6559 33.7897
ltoes 39.438
2658
root -29.7139 16.5384 -9.836 1082.52 -16.2933 -367.39
lowerback 3.0142 4.50048 6.09841
upperback -0.515435 6.25348 1.43965
thorax -1.72954 3.06091 -2.16086
lowerneck -17.6597 11.7403 15.9739
upperneck 22.2218 13.3762 -5.69625
head 11.6902 6.76752 -2.46743
rclavicle -2.74074e-014 -2.22639e-014
rhumerus -26.4934 0.143134 -75.7667
rradius 42.0416
rwrist 0.349539
rhand -8.4308 -30.6128
rfingers 7.12502
rthumb 17.4943 -59.8456
lclavicle -2.74074e-014 -2.22639e-014
lhumerus -46.4825 -0.794334 84.7617
lradius 22.9096
lwrist -16.3036
lhand -6.90736 -22.8496
lfingers 7.12502
lthumb 18.9599 6.24634
rfemur 24.2466 -2.31315 22.0889
rtibia 6.38674
rfoot -17.5576 -3.41826
rtoes -17.2425
lfemur -12.8135 18.5555 -11.5607
ltibia 1.93503
lfoot -16.0245 33.1954
ltoes 37.952
2659
root -29.7022 16.5638 -9.7235 1082.25 -15.8477 -367.083
lowerback 3.11945 4.46268 5.79051
upperback -0.500868 6.19768 1.33703
thorax -1.79822 3.03464 -2.10564
lowerneck -17.7128 11.7229 15.9377
upperneck 22.2333 13.3509 -5.68397
head 11.6976 6.75362 -2.46005
rclavicle -2.1419e-014 -1.13307e-014
rhumerus -27.1137 0.809814 -76.2142
rradius 42.4172
rwrist -0.0459924
rhand -8.10089 -30.8476
rfingers 7.12502
rthumb 17.8118 -60.0518
lclavicle -2.1419e-014 -1.13307e-014
lhumerus -46.0505 -0.663034 84.5699
lradius 22.8902
lwrist -16.2607
lhand -6.26129 -23.2194
lfingers 7.12502
lthumb 19.5812 5.81446
rfemur 24.531 -1.94938 21.8843
rtibia 6.77418
rfoot -16.9829 -3.82111
rtoes -16.1669
lfemur -12.4434 19.2704 -12.0906
ltibia 2.21777
lfoot -14.8951 32.374
ltoes 36.1448
2660
root -29.6893 16.5777 -9.61373 1082.27 -15.3619 -366.879
lowerback 2.97753 4.44914 5.61763
upperback -0.562255 6.16366 1.20919
thorax -1.78845 3.01872 -2.13156
lowerneck -17.7841 11.7033 15.9573
upperneck 22.3123 13.3046 -5.66373
head 11.736 6.73599 -2.46021
rclavicle -1.04797e-014 -4.57205e-015
rhumerus -27.8903 1.25166 -76.7247
rradius 42.7906
rwrist -0.432087
rhand -7.95395 -30.9287
rfingers 7.12502
rthumb 17.9531 -60.1201
lclavicle -1.04797e-014 -4.57205e-015
lhumerus -45.849 -1.31325 84.9841
lradius 23.2989
lwrist -15.6078
lhand -6.59764 -22.8674
lfingers 7.12502
lthumb 19.2578 6.19911
rfemur 24.4686 -2.09158 21.4748
rtibia 7.32648
rfoot -16.2505 -3.69441
rtoes -14.6297
lfemur -12.3654 19.6026 -12.5945
ltibia 2.47517
lfoot -14.1827 31.6932
ltoes 35.0295
2661
root -29.6785 16.6014 -9.49946 1082.1 -15.0378 -366.745
lowerback 3.05768 4.50601 5.59662
upperback -0.610754 6.2433 1.03286
thorax -1.85989 3.05522 -2.31161
lowerneck -17.6905 11.5969 15.9878
upperneck 22.1975 13.1165 -5.52696
head 11.6443 6.67205 -2.45647
rclavicle -7.72651e-014 -1.51076e-014
rhumerus -28.7221 1.29515 -77.2498
rradius 43.0068
rwrist -0.489303
rhand -8.03305 -30.9006
rfingers 7.12502
rthumb 17.877 -60.0989
lclavicle -7.72651e-014 -1.51076e-014
lhumerus -45.9868 -2.64265 85.6972
lradius 24.1735
lwrist -14.2314
lhand -6.79476 -22.5911
lfingers 7.12502
lthumb 19.0682 6.49423
rfemur 24.6035 -1.88985 21.3093
rtibia 7.88508
rfoot -15.6108 -3.71508
rtoes -12.6623
lfemur -11.7937 19.4361 -12.8154
ltibia 2.38064
lfoot -13.9796 31.3993
ltoes 34.9133
2662
root -29.6665 16.6218 -9.3795 1082.07 -14.7914 -366.63
lowerback 2.94101 4.6007 5.6003
upperback -0.68996 6.36158 0.860659
thorax -1.84719 3.1127 -2.48552
lowerneck -17.6457 11.4908 16.101
upperneck 22.2131 12.944 -5.53331
head 11.6314 6.60517 -2.5105
rclavicle 5.75171e-014 -1.98785e-015
rhumerus -29.5386 1.31003 -77.7437
rradius 43.1765
rwrist -0.379543
rhand -8.05551 -30.7695
rfingers 7.12502
rthumb 17.8554 -59.9698
lclavicle 5.75171e-014 -1.98785e-015
lhumerus -45.7955 -3.33665 85.9006
lradius 24.6318
lwrist -13.2693
lhand -6.36543 -23.0141
lfingers 7.12502
lthumb 19.481 6.03
rfemur 24.6241 -1.48338 21.278
rtibia 8.44643
rfoot -14.9427 -3.85556
rtoes -11.5544
lfemur -11.3011 19.2224 -12.9977
ltibia 2.20878
lfoot -14.1534 31.1488
ltoes 35.5673
2663
root -29.6547 16.6363 -9.25839 1082.27 -14.5943 -366.444
lowerback 2.52868 4.63319 5.38495
upperback -0.793042 6.37244 0.796122
thorax -1.73751 3.12224 -2.40181
lowerneck -17.6671 11.4691 15.9123
upperneck 22.2874 12.9359 -5.40674
head 11.638 6.60188 -2.43675
rclavicle -2.14532e-014 -4.37326e-015
rhumerus -30.2346 1.85811 -78.2281
rradius 43.355
rwrist -0.505534
rhand -7.86055 -30.6911
rfingers 7.12502
rthumb 18.043 -59.8742
lclavicle -2.14532e-014 -4.37326e-015
lhumerus -45.6253 -3.54362 86.4591
lradius 24.8474
lwrist -14.47
lhand -9.64659 -21.4883
lfingers 7.12502
lthumb 16.3239 7.84469
rfemur 24.3148 -1.49061 20.9317
rtibia 9.14184
rfoot -13.7417 -3.73086
rtoes -14.2962
lfemur -11.2504 19.5782 -13.3876
ltibia 2.36078
lfoot -14.4159 30.4556
ltoes 36.1344
2664
root -29.6316 16.6677 -9.13824 1081.97 -14.254 -366.332
lowerback 2.70871 4.5244 5.36059
upperback -0.748433 6.23707 0.802231
thorax -1.80604 3.05373 -2.39368
lowerneck -17.7003 11.5372 15.7984
upperneck 22.3814 13.0553 -5.36243
head 11.6814 6.65162 -2.37843
rclavicle 1.39957e-014 -2.18663e-014
rhumerus -30.7772 2.33485 -78.715
rradius 43.403
rwrist -0.56368
rhand -7.90449 -30.6893
rfingers 7.12502
rthumb 18.0007 -59.8763
lclavicle 1.39957e-014 -2.18663e-014
lhumerus -45.1078 -2.65787 85.9577
lradius 24.9036
lwrist -14.0107
lhand -9.22441 -21.9343
lfingers 7.12502
lthumb 16.7304 7.36484
rfemur 24.5008 -1.43964 20.5946
rtibia 9.81663
rfoot -13.2013 -3.73978
rtoes -12.0186
lfemur -10.7768 20.484 -13.7796
ltibia 2.5492
lfoot -11.421 30.1973
ltoes 30.2207
2665
root -29.6149 16.6903 -9.02172 1081.81 -14.0381 -366.22
lowerback 2.74728 4.5167 5.22567
upperback -0.765117 6.22489 0.770563
thorax -1.85628 3.04754 -2.35669
lowerneck -17.6525 11.5614 15.8049
upperneck 22.3982 13.0991 -5.36295
head 11.6844 6.67331 -2.37312
rclavicle -8.55085e-015 1.23246e-014
rhumerus -31.3622 2.53606 -79.1819
rradius 43.4154
rwrist -0.4396
rhand -7.96272 -30.7532
rfingers 7.12502
rthumb 17.9447 -59.9454
lclavicle -8.55085e-015 1.23246e-014
lhumerus -45.3783 -4.29354 86.9487
lradius 26.1434
lwrist -11.6704
lhand -9.44848 -21.5702
lfingers 7.12502
lthumb 16.5147 7.74695
rfemur 24.6246 -0.88134 20.6932
rtibia 10.333
rfoot -12.6605 -4.2105
rtoes -9.98909
lfemur -10.0795 20.1312 -13.8708
ltibia 2.37852
lfoot -12.3889 29.7674
ltoes 31.7575
2666
root -29.6024 16.7083 -8.90613 1081.63 -13.7389 -366
lowerback 2.78753 4.52646 4.99588
upperback -0.796049 6.23181 0.672459
thorax -1.92315 3.05124 -2.33705
lowerneck -17.5217 11.4867 15.7548
upperneck 22.3172 13.0098 -5.29869
head 11.6094 6.63984 -2.36678
rclavicle -2.92897e-014 3.18055e-015
rhumerus -32.1445 2.92922 -79.6616
rradius 43.6174
rwrist -0.599281
rhand -7.72618 -30.8325
rfingers 7.12502
rthumb 18.1723 -60.0036
lclavicle -2.92897e-014 3.18055e-015
lhumerus -45.0488 -4.63437 87.2315
lradius 26.3368
lwrist -12.0994
lhand -10.7981 -20.8417
lfingers 7.12502
lthumb 15.215 8.57888
rfemur 24.7982 -0.469221 20.7058
rtibia 10.8522
rfoot -12.0606 -4.69847
rtoes -6.52319
lfemur -9.55109 20.6393 -14.2229
ltibia 2.46645
lfoot -11.9954 28.8662
ltoes 31.4756
